{
    "asset" : {
        "generator" : "Khronos glTF Blender I/O v1.1.45",
        "version" : "2.0"
    },
    "scene" : 0,
    "scenes" : [
        {
            "name" : "Scene",
            "nodes" : [
                0,
                1
            ]
        }
    ],
    "nodes" : [
        {
            "mesh" : 0,
            "name" : "BezierCircle.073",
            "scale" : [
                0.39471715688705444,
                0.39471715688705444,
                0.39471715688705444
            ],
            "translation" : [
                20.722349166870117,
                -0.08938567340373993,
                -0.038937509059906006
            ]
        },
        {
            "name" : "BezierCircle",
            "scale" : [
                5.692392826080322,
                5.692392826080322,
                5.692392826080322
            ],
            "translation" : [
                0.019068032503128052,
                -0.2341717779636383,
                0.0147361159324646
            ]
        }
    ],
    "meshes" : [
        {
            "name" : "BezierCircle.074",
            "primitives" : [
                {
                    "attributes" : {
                        "POSITION" : 0,
                        "NORMAL" : 1,
                        "TEXCOORD_0" : 2
                    },
                    "indices" : 3
                }
            ]
        }
    ],
    "accessors" : [
        {
            "bufferView" : 0,
            "componentType" : 5126,
            "count" : 32190,
            "max" : [
                -37.18101501464844,
                3.1231608390808105,
                15.032951354980469
            ],
            "min" : [
                -67.21977233886719,
                -4.231107234954834,
                -14.372450828552246
            ],
            "type" : "VEC3"
        },
        {
            "bufferView" : 1,
            "componentType" : 5126,
            "count" : 32190,
            "type" : "VEC3"
        },
        {
            "bufferView" : 2,
            "componentType" : 5126,
            "count" : 32190,
            "type" : "VEC2"
        },
        {
            "bufferView" : 3,
            "componentType" : 5123,
            "count" : 141192,
            "type" : "SCALAR"
        }
    ],
    "bufferViews" : [
        {
            "buffer" : 0,
            "byteLength" : 386280,
            "byteOffset" : 0
        },
        {
            "buffer" : 0,
            "byteLength" : 386280,
            "byteOffset" : 386280
        },
        {
            "buffer" : 0,
            "byteLength" : 257520,
            "byteOffset" : 772560
        },
        {
            "buffer" : 0,
            "byteLength" : 282384,
            "byteOffset" : 1030080
        }
    ],
    "buffers" : [
        {
            "byteLength" : 1312464,
            "uri" : "data:application/octet-stream;base64,"
        }
    ]
}
