<svg xmlns="http://www.w3.org/2000/svg" viewBox="0 0 440.54 212.97"><defs><style>.cls-1{fill:red;}</style></defs><title>Recurso 2perro</title><g id="Capa_2" data-name="Capa 2"><g id="Capa_1-2" data-name="Capa 1"><path class="cls-1" d="M98.9,213c-.26-2-.68-3.91-.76-5.88-.09-2.35.26-4.72.14-7.06a40.85,40.85,0,0,0-.92-6c-.56-2.77-1.49-5.48-1.79-8.27a36.74,36.74,0,0,0-2.78-10.48c-.87-2.09-1.68-4.21-2.47-6.33-1.95-5.26-4.8-10.08-7.2-15.11s-6.31-8.61-10.56-12c-2.25-1.77-4.44-3.63-6.61-5.51a14,14,0,0,0-6.85-3.42,16.13,16.13,0,0,1-7.71-3c-1.23-1-3.08-1.18-4.42-2.07-3.12-2.08-6.61-2-10.12-2.1A4.54,4.54,0,0,0,35,126c-2.6,1.13-5.23.85-7.89.35a38.4,38.4,0,0,0-5-.72,15.84,15.84,0,0,1-6.87-2.3,21.42,21.42,0,0,0-8.75-2.19,46.29,46.29,0,0,1-5-.72,5.27,5.27,0,0,1-1.53-1V119a14.07,14.07,0,0,1,2.59-.6c1.54,0,3.07.18,4.47-.81a3.3,3.3,0,0,1,1.85-.31c6.23.1,12.47.25,18.71.36a21.58,21.58,0,0,0,7.07-1,26.62,26.62,0,0,1,5.63-1c2.19-.19,4.47.18,6.58-.3,2.62-.59,5.45-1.13,7.12-3.77a2,2,0,0,1,1.68-.54c2.26.51,4.09-.5,5.94-1.48a1.06,1.06,0,0,0,.53-.6c.25-2,2-2.83,3.29-4,.38-.36,1.14-.32,1.57-.66,1.32-1.07,2.51-2.33,3.86-3.36,2.22-1.69,4.62-3.16,6.79-4.91,1.91-1.54,3.62-3.34,5.42-5a8.12,8.12,0,0,1,1-.88,13.36,13.36,0,0,0,3.84-4.35,1.84,1.84,0,0,1,.55-.62,5.27,5.27,0,0,0,2.31-3.76A8.82,8.82,0,0,1,93,77.56c1.43-1.64,2.73-3.41,4.16-5.06a5.31,5.31,0,0,1,1.73-1.2c.57-.27,1.23-.33,1.83-.56a4.54,4.54,0,0,0,3.19-3.35,19.29,19.29,0,0,1,3.48-7.26,11,11,0,0,0,2.59-5.39,12.47,12.47,0,0,1,1.84-4.35A140.94,140.94,0,0,0,120.13,33a22.63,22.63,0,0,1,1.94-3.17l.42.18c0,.6,0,1.21,0,1.8a11,11,0,0,0-.27,2c.41,4.34-1.35,8-3.41,11.63a9,9,0,0,0-.83,6,44.72,44.72,0,0,1,.07,7.85c0,1-1,1.85-.94,3.1.15,2.12.43,4.14,1.92,5.75a13,13,0,0,1,3,6.27,2.58,2.58,0,0,0,.93,1.46c3,2,6,3.9,9,5.8C134.15,83,136.56,83,139,83a6,6,0,0,1,3.44.66A14.69,14.69,0,0,0,147,85.45a52.62,52.62,0,0,0,6.18.69.68.68,0,0,0,.51-.23,5.44,5.44,0,0,1,3.94-2.36A4.62,4.62,0,0,0,159,82.7q2.75-1.85,5.48-3.7c.73-.5,1.4-1.07,2.13-1.55,2.52-1.69,5.1-3.28,7.55-5.06a11.39,11.39,0,0,1,3-1.35,10.29,10.29,0,0,0,3.52-2.69A36.51,36.51,0,0,0,183.21,65a2.63,2.63,0,0,1,1-.65,10.3,10.3,0,0,0,4-3.8,41.92,41.92,0,0,1,4.47-5.25A21.58,21.58,0,0,1,195,53.4l.46.29a9.37,9.37,0,0,1-.61,2.53c-1.62,2.84-3.31,5.64-5.1,8.38a9,9,0,0,1-2.22,2c-3.44,2.6-6.9,5.17-10.35,7.76a16.29,16.29,0,0,0-1.78,1.42c-1.26,1.29-2.43,2.67-3.68,4a31.42,31.42,0,0,1-2.83,2.71,23.93,23.93,0,0,0-4.72,4.81c-1.19,1.67-3.46,2.56-5.23,3.81a11.58,11.58,0,0,0-1.79,1.47c-1.17,1.25-2.27,2.55-3.38,3.85s-2,2.45-3.06,3.67c-.16.19-.3.44-.5.52-3,1.2-4.18,4.4-6.64,6.26-1.88,1.42-1.86,3.66-.47,5.49a7.29,7.29,0,0,1,.42.78l-.41.23c-.68-1.2-1.4-2.38-2-3.61s-.93-2.47-1.59-3.59c-1.3-2.22-1.08-4.24.85-5.95.72-.64,1.47-1.26,2.2-1.89l-.12-.38a10.37,10.37,0,0,0-1.44-.26c-1.83-.05-3.67,0-5.51-.11a2.66,2.66,0,0,1-1.47-.37c-2.86-2.29-5.76-4.53-8.48-7-1.5-1.35-2.77-2.86-4.82-3.53-.57-.19-1-1.42-1.12-2.21a5.75,5.75,0,0,0-.87-2.87c-.85-1.24-1.62-2.52-2.46-3.77a1.55,1.55,0,0,0-.7-.62c-2.18-.72-2.79-2.56-3.29-4.49-.14-.5-.3-1-.48-1.59-.73,1.19-1.38,2.31-2.1,3.39-3.2,4.75-6.31,9.56-9.67,14.19-1.21,1.67-3,2.9-4.59,4.32-1.07,1-2.13,2-3.21,2.93-1.61,1.42-3.18,2.89-4.87,4.18-1.15.88-2,1.75-2,3.3a2.7,2.7,0,0,1-1.26,2.3,30.69,30.69,0,0,0-3.91,3.48,3.28,3.28,0,0,0-.67,2.08c0,.87.72.9,1.3.55,1-.63,1.94-1.41,3-2,1.17-.74,2.38-1.41,3.59-2.09.87-.48,1.8-.85,2.63-1.39s1.46-.59,2,.08a4.79,4.79,0,0,0,4.11,1.5c.64,0,1.29.09,1.92,0,1-.1,1.91-.32,2.86-.47a2,2,0,0,1,1.13.13c-.36.18-.75.54-1.07.5-1.08-.16-1.55.45-1.87,1.27a2.83,2.83,0,0,1-3,1.78c-1.64,0-3.28-.09-4.92-.08-.45,0-1.1.09-1.3.39-1.76,2.49-4.45,3.57-7,4.88-3,1.55-3.63,3.39-2.31,6.88a32.63,32.63,0,0,1,1.15,3.76,4.34,4.34,0,0,0,2.19,2.83,15.94,15.94,0,0,1,3.2,2.46,20.06,20.06,0,0,0,5.7,3.86,10.92,10.92,0,0,1,3.19,3,21.81,21.81,0,0,1,3,4.3,40.84,40.84,0,0,1,2.17,6,32.65,32.65,0,0,1,.66,3.89c.83-2.69,2.55-4.47,4.09-6.36.75-.92,1.57-1.79,2.3-2.73a3.72,3.72,0,0,1,2.21-1.4c2.93-.74,5.79-1.78,8.68-2.7a21.22,21.22,0,0,0,6.42-3.07c1.21-.89,2.85-1.19,4.28-1.79a1.8,1.8,0,0,0,.82-.64,8.15,8.15,0,0,1,4.75-3.43,38.44,38.44,0,0,1,4.42-1.06c1-.2,1.27-.67.84-1.59a3.33,3.33,0,0,0-3.2-2.22,10.33,10.33,0,0,1-7-2.59c-2.14-2-4.34-4-6.55-6a10.23,10.23,0,0,0-2.44-1.73c-2.08-1-3.44-2.69-5-4.2l-3.64-3.45c-.65-.62-1.24-1.27-.61-2.43a7.19,7.19,0,0,1,1.22.92c1,1.13,2,2.31,3,3.45.23.27.47.62.77.72,2.53.84,4.67,2.65,7.44,2.92a4.92,4.92,0,0,1,1.85.82c2.36,1.4,4.69,2.85,7,4.25a39.21,39.21,0,0,0,10.17,4.15,24.41,24.41,0,0,1,3.29,1.34c1.31.56,2.63,1.11,3.92,1.72a9,9,0,0,1,2.57,1.45,21.52,21.52,0,0,0,12.1,6c3.13.52,6.09,2.07,9.12,3.15a16.92,16.92,0,0,0,2.27.69c4.54.89,9.15,1.48,13.4,3.47.34.16.66.35,1.27.67a7.3,7.3,0,0,1-.87.15c-4.91-.24-9.86-.15-14.71-.82a62.28,62.28,0,0,1-12.75-3.17,36,36,0,0,0-8.57-1.76,25,25,0,0,1-4.43-1.35c-2.2-.69-4.36-1.16-6.48.37a7,7,0,0,1-2.43.94A24.52,24.52,0,0,0,135,138.8c-4.63,2.58-8.56,6.33-13.73,8-1.7.54-3.33,1.3-5,1.85-2.32.77-2.93,2.88-3.84,4.74-1.4,2.82-2.72,5.68-4.07,8.52-1.13,2.36-2.32,4.62-2.52,7.38-.29,3.81-1.36,7.56-1.64,11.36-.4,5.67-1.93,11.09-3.14,16.57a41,41,0,0,0-1.26,11c.08,1.58-.12,3.19-.2,4.78Z"/><path class="cls-1" d="M370,133.88c-1.53-.51-3.06-1-4.59-1.53a6.7,6.7,0,0,0-1.18-.16c-1.17-.14-2.08-.06-2.61,1.34a9.41,9.41,0,0,1-2.11,3c-2.22,2.24-2.95,5.11-3.8,8s-1.85,5.43-2.81,8.13a20.11,20.11,0,0,1-1.3,3.34c-1.29,2.28-2.72,4.49-4.13,6.71-.43.67-1.18,1.21-1.4,1.93-.68,2.18-2.55,3.3-4,4.84a17,17,0,0,0-1.92,2.55c-2,3.15-3.74,6.41-5.82,9.47-1.77,2.6-3.84,5-5.81,7.46a24.63,24.63,0,0,1-3.61,4.29c-3.61,2.88-7.23,5.83-12,6.71-.45.08-.93.1-1.84.19a11.82,11.82,0,0,1,1.34-2.33c1.22-1.24,2.57-2.36,3.87-3.52,1.76-1.56,3.51-3.14,5.31-4.67a49.08,49.08,0,0,0,5-4.24c1.68-1.89,3.46-3.79,4-6.46a16.64,16.64,0,0,1,1.44-3.21c.46-1,1-2,1.36-3.05a15.48,15.48,0,0,1,4.83-6.54,19.14,19.14,0,0,0,6.87-12.49,25.89,25.89,0,0,1,2.14-5.93c.89-2.18,1.85-4.33,2.86-6.45.55-1.15,1.39-2.18,1.89-3.35.74-1.71,1.33-3.48,1.9-5.26.32-1-.36-1.39-1.18-1.76a39.65,39.65,0,0,1-10.13-6.68c-1.56-1.41-2.29-3.74-3.33-5.69-.45-.84-.66-1.8-1.09-2.64a8.3,8.3,0,0,1-1.09-4.48,1.82,1.82,0,0,0-.09-.94c-1.37-2.37-.73-4.92-.74-7.4,0-1.23,0-2.45,0-3.78a2.39,2.39,0,0,0-2,1.91c-.27,1.19-.29,2.44-.44,3.66a19.35,19.35,0,0,1-.5,3.76,31.89,31.89,0,0,0-1.67,10.48q.09,10.25.12,20.51a7,7,0,0,1-.14,1.9,29.56,29.56,0,0,0-.94,6.49c-.08,1.39-1,2.75-1.51,4.12l-.51-.11c-.15-1.24-.2-2.5-.46-3.7-1.39-6.33-.79-12.74-.79-19.12a16.62,16.62,0,0,0-1.37-7.1c-1.35-2.93-2.35-6-3.66-9a31,31,0,0,0-2.52-4c-.48-.73-1.08-1.39-1.56-2.12-1.7-2.55-3.52-5-5-7.71a14.58,14.58,0,0,1-1.92-5.71c-.13-1.29-1.14-2.49-1.76-3.72l-.31.11a1.94,1.94,0,0,0-.05.53c.53,3-.94,5.18-2.9,7.11-1.7,1.68-3.52,3.24-5.36,4.79a13.46,13.46,0,0,1-5.94,3c-1.14.25-1.24.63-.51,1.53.33.41.66.81,1,1.18,1.69,1.71,1.84,3.82,1.58,6a5.79,5.79,0,0,0,1,4.23c2.32,3.15,2.82,7,4.17,10.5a23.07,23.07,0,0,1,1.21,5.14,44.46,44.46,0,0,0-1.84-4.24c-.93-1.7-2-3.3-3.1-4.93-.32-.49-.87-.91-1-1.44a4.94,4.94,0,0,0-2.41-3c-2.25-1.3-3.23-3.47-4.3-5.59a8.65,8.65,0,0,0-3.22-3.9,7.22,7.22,0,0,1-1.19-1.16,8,8,0,0,0-1.18-1.15,32.15,32.15,0,0,1-3.28-1.94,33,33,0,0,1-2.87-3c-1.05-1.11-2.12-2.2-3.17-3.31a7.58,7.58,0,0,1-.56-.86,2.6,2.6,0,0,1,.74-.19,6.28,6.28,0,0,0,4.16-.87c1.94-1.26,4.23-1.21,6.48-1.21a16.38,16.38,0,0,0,3.76-.44,5.2,5.2,0,0,0,1.74-1.16c.57-.45,1.06-1,1.63-1.42,1.29-1,2.55-2,3.93-2.92.94-.6,2.12-.8,2.7-2s1.46-2,1.16-3.47c-.58-2.77.86-4.86,2.45-6.9a8.27,8.27,0,0,0,1.59-5.19q0-5.2-.13-10.43a5.21,5.21,0,0,0-.81-2.34c-.91-1.5-2-2.9-3-4.36a39.4,39.4,0,0,1-5.76-11.43c-.22-.8-.56-1.57-.86-2.36-.73-1.94-1.4-3.91-2.24-5.8-.5-1.15-1.28-2.18-1.9-3.29-.17-.31-.41-.85-.27-1,1-1.35.33-2.53-.41-3.58-1.15-1.62-2.5-3.11-3.7-4.7a63,63,0,0,1-3.9-5.46,30.17,30.17,0,0,1-1.81-4.37l.41-.26a4.59,4.59,0,0,1,.9.72c.42.58.69,1.27,1.12,1.84,2.07,2.79,4.1,5.62,6.3,8.3,1.41,1.71,3.16,3.13,4.62,4.79a7.74,7.74,0,0,1,1,2.31c.2.48.39,1,.57,1.45.35,1,.74,1.9,1,2.86,1.4,4.48,4,8.38,6.45,12.24a26,26,0,0,0,5.83,6.07c1.65,1.28,3.85,1.84,5.79,2.75,1.17.55,2.34,1.09,3.46,1.73.71.41.59,1,0,1.45-.84.59-1.79,1-2.59,1.65a14,14,0,0,0-1.9,2A5,5,0,0,0,313,66,5.79,5.79,0,0,0,314,71c1.34,2.13,2.51,4.38,3.78,6.56.76,1.3,1.63,2.54,2.35,3.86a12.94,12.94,0,0,1,.76,2.25c.18.56.31,1.15.53,1.7.62,1.56,1.22,3.12,1.91,4.64,1.22,2.67,2.5,5.3,3.74,8a3.3,3.3,0,0,1,.16.56l.35.07c.37-2,.9-4,1.07-6,.19-2.42,0-4.84.76-7.23a11,11,0,0,0,.12-3.93,11.68,11.68,0,0,1,1.16-6.05,2.2,2.2,0,0,0,.25-.54A52.68,52.68,0,0,0,332,68.3c.15-3.47,0-6.95-.08-10.42,0-1.55-.35-3.09-.5-4.64a11.19,11.19,0,0,1,.08-1.47c1.89,1.46,3.89,2.55,4.95,4.63a1.08,1.08,0,0,0,1.5.56c3.26-1.19,6.3-2.72,7.43-6.34a12.68,12.68,0,0,1,4.49-6.34,10,10,0,0,0,1.39-1.89c1.75-2.18,3.56-4.32,5.25-6.54,2-2.61,3.83-5.31,5.79-7.93a3.82,3.82,0,0,1,1.65-1.4c2.68-.9,5.45-1.56,8.12-2.5s5.39-2.17,8.09-3.26c1.4-.57,2.83-1.06,4.21-1.68s2.66-1.48,4.07-2a22.14,22.14,0,0,1,4.12-1c.38-.06,1.17.34,1.2.58.06.56-.06,1.44-.43,1.69-1.76,1.13-3.45,2.53-5.75,2.38a1.25,1.25,0,0,0-.68.19c-1.74,1-3.43,2.1-5.21,3-2.53,1.33-5.15,2.48-7.67,3.84-1.68.9-3.25,2-4.86,3a4,4,0,0,1-1,.62,7.08,7.08,0,0,0-4.37,4,4.38,4.38,0,0,0-.61,1.41,10.68,10.68,0,0,1-2.62,5.43,59.77,59.77,0,0,0-7.35,11.31c-1.11,2.16-2.28,4.21-2.36,6.7a2.09,2.09,0,0,1-.18.57c-1.17,3.34-2.35,6.68-3.5,10-.25.72-.38,1.47-.62,2.19a47.61,47.61,0,0,1-1.91,5.25,10.92,10.92,0,0,0-1.22,5.27c.13,3.71,0,7.44.05,11.16A4.07,4.07,0,0,0,343.5,96c1.33,4,1.77,8.35,4.4,11.94,1.72,2.34,3.19,4.88,4.7,7.37a47.8,47.8,0,0,0,7.44,8.74,28.19,28.19,0,0,1,3.23,3.68,14.81,14.81,0,0,0,5.15,4.39,13.07,13.07,0,0,1,1.89,1.55Z"/><path class="cls-1" d="M204,148.74a19.18,19.18,0,0,1-.7-2.93,4.79,4.79,0,0,0-2.54-4.17,3.75,3.75,0,0,1-1.4-1.28c-2.16-3.64-5.46-6.44-7.38-10.29a28.73,28.73,0,0,0-4.38-6,5.74,5.74,0,0,0-4.44-2.31c-5,0-9.91-.31-14.85-.77a34.93,34.93,0,0,1-6.45-1.71c-1.79-.54-3.56-1.15-5.31-1.81a4.47,4.47,0,0,0-3.39,0,10.58,10.58,0,0,1-5.54.5,2.76,2.76,0,0,0-1.07,0c-1.09.28-1.81-.23-2.63-1.27.73-.36,1.38-.71,2.06-1a15.71,15.71,0,0,0,1.82-.81,46,46,0,0,1,8.2-4.21c2.13-.85,4.19-1.9,6.23-3,.57-.3.94-1,1.42-1.41,1.21-1.15,2.39-2.33,3.67-3.39a13.75,13.75,0,0,0,3.54-4.39c1-1.87,2-3.82,4-4.87.76-.39,1.8-.33,2.45-.82a21.47,21.47,0,0,0,3.87-3.62c1.53-2,2.94-4,5.08-5.36a2.85,2.85,0,0,0,.65-.69c1.42-1.86,2.78-3.77,4.26-5.59.89-1.1,2-2.08,2.94-3.12a25.08,25.08,0,0,0,6.94-12.7,20.14,20.14,0,0,1,2.23-6,32,32,0,0,0,1.93-5.82c.32-1,.65-2,.9-3.1a29.7,29.7,0,0,0,.71-3.74c.19-1.82.12-3.68.37-5.5.32-2.4.77-4.79,1.32-7.15a10.66,10.66,0,0,1,1.35-2.78.71.71,0,0,1,1.34.45c-.06,1.36-.27,2.71-.3,4.06,0,1,.14,2,.22,3.06a9.79,9.79,0,0,1,.11,1.78c-.61,4.85.57,9.32,2.62,13.67a32.31,32.31,0,0,1,1.4,4.27,16.54,16.54,0,0,1,.68,2.38c.37,2.33.62,4.69,1,7s.57,5.08,1.55,7.33c1.07,2.46,2.13,5.16,4.71,6.64,1,.6,2.11,1.12,3.17,1.68.21.1.45.17.66.27,2.53,1.27,5.08,2.49,7.57,3.83a20,20,0,0,1,3.55,2.41,18.17,18.17,0,0,0,10.72,4.29c.44,0,.89,0,1.31.07,2.06.39,3.71.12,4.06-2.38a.7.7,0,0,1,.18-.31c.88-1,1.82-2,1.48-3.58,1.28,1.09,2.34,2.15,2.27,3.92,0,.79.19,1.58.2,2.38a3.09,3.09,0,0,1-2.3,3.35c-2.18.72-4.41,1.3-6.62,1.94a4.56,4.56,0,0,0-1,.38c-1.51.87-3,1.73-4.5,2.67a9.35,9.35,0,0,0-1.55,1.47,11,11,0,0,1-1.43,1.6c-1.32.94-1.63,2.44-2.36,3.72-1.27,2.23-2.69,4.39-4,6.59-.53.87-1,1.77-1.5,2.68-.58,1.13-1.07,2.31-1.67,3.44-1.41,2.65-3.16,5-3.83,8.16A44.88,44.88,0,0,1,224,136a22.83,22.83,0,0,0-1.84,6.9,18.88,18.88,0,0,1-1.12,5.1,38.57,38.57,0,0,0-2.68,12.47,4.9,4.9,0,0,0,1.11,3.78c1.13,1.34.67,3.93-.64,5.26a26.55,26.55,0,0,0-3.13,3.73,53.19,53.19,0,0,0-3.05,5.28,10.36,10.36,0,0,0-.94,2.69,49.89,49.89,0,0,1-3.72,11c-.61,1.32-.83,2.83-2,3.88-.26.24-.45.56-.72.79-1.77,1.54-3.54,3.08-5.34,4.58-.64.54-1.41.92-2,1.47-.79.68-1.48,1.49-2.25,2.2-.56.52-1.19,1-1.79,1.46a3.73,3.73,0,0,1,1-4.07,12.28,12.28,0,0,0,2.19-2.74,11.39,11.39,0,0,1,3.36-4.1,5.68,5.68,0,0,0,1.63-2.13c1.22-2.47,2.33-5,3.48-7.47.29-.62.54-1.25.86-1.85,1-1.85,2.11-3.64,2.93-5.57a13,13,0,0,0,.94-4.14,33.11,33.11,0,0,1,1.42-9.05c.76-2.14.3-4.72.37-7.11s.13-4.85.2-7.28a1,1,0,0,1,.11-.47c1.85-2.93,2.68-6.29,4-9.45s2.93-6.11,4.1-9.28A47.22,47.22,0,0,0,222,125c.56-2.71.87-5.48,2-8.06a24.7,24.7,0,0,0,1.42-4.17c.37-1.54,0-1.81-1.58-1.73s-3.43.07-5.14.1A2.48,2.48,0,0,1,218,111c-3-.91-6.14-1.33-8.89-3-1.49-.92-3.11-1.62-4.66-2.44-.75-.4-.85.21-1.11.64a25.32,25.32,0,0,1-2.25,3.63c-2.42,2.78-5.74,3.54-9.25,3.7a2.2,2.2,0,0,1-.36,0,2,2,0,0,1-.21-.1c-.29-1.63.2-2.19,1.71-2.75,2.39-.9,4.67-1.87,6-4.45a74.18,74.18,0,0,1,4.33-6.89c.73-1.12,1.18-1.1,1.9.05.26.4.37.95.71,1.24a4.39,4.39,0,0,0,1.91,1.17c3.43.5,6.89.75,10.3,1.31a18.4,18.4,0,0,1,4,1.57c.61.25,1.19.58,1.8.89a4.72,4.72,0,0,0-2.22-5.37,9,9,0,0,1-5.28-5.25,8.36,8.36,0,0,0-3.28-4,21.92,21.92,0,0,1-6.48-6.8,31.55,31.55,0,0,0-3.06-4.43c-.06,1.05-.07,2.11-.2,3.15a6.1,6.1,0,0,1-.58,2.4,57.69,57.69,0,0,1-4.46,6.66,17.3,17.3,0,0,1-4.15,3.39c-1.84,1.19-3.84,2.13-5.75,3.21a11.36,11.36,0,0,0-1.36.94c-.32.25-.57.58-.89.81-2.11,1.55-4.27,3-6.34,4.65a19.14,19.14,0,0,0-3,2.9c-.91,1.12-.43,2.18,1,2.42.9.14,1.86,0,2.74.21a15.2,15.2,0,0,1,3.1,1.14,1.49,1.49,0,0,1,.77,1.1c-.2,1.81.95,3.18,1.38,4.78a5.12,5.12,0,0,0,2.2,2.78c3.13,2.41,6.13,5,9.1,7.6,2.1,1.83,3.23,4.37,4.24,6.88a46.77,46.77,0,0,1,3.16,13,4,4,0,0,1-.1.91Z"/><path class="cls-1" d="M272.41,0a6.12,6.12,0,0,1,.43,1.09c.66,4.46,1.69,8.87,1.36,13.43-.07,1,.05,1.93,0,2.88-.47,5.63,1,11,2.15,16.41,1.51,7.12,2.51,14.32,1.54,21.6-.36,2.71-1.37,5.33-2,8-.87,3.8-2,7.58-1.68,11.57.1,1.18.37,2.35.48,3.54.15,1.73.31,3.47.3,5.21a21.15,21.15,0,0,1-.44,4,2.35,2.35,0,0,1-1,1.28c-.43.3-1.11.26-1.55.56a2,2,0,0,0-.9,1.2c-.17,3.51-.27,7-.35,10.54-.05,2-.09,3.92,0,5.87a5.41,5.41,0,0,0,.81,2.19c1.66,3,3.39,5.87,5,8.83a5,5,0,0,1,.35,1.49c-1.76.46-3.35.86-4.93,1.3a2.85,2.85,0,0,0-2,2.11,5.74,5.74,0,0,1-4.32,3.7c-1.87.5-3.81.76-5.7,1.21a1.1,1.1,0,0,0-.56.87,41,41,0,0,0,.28,4.3,3,3,0,0,0,2,2.38c2.4,1,4.14,2.82,5.95,4.55a11.67,11.67,0,0,1,1.7,2.42c1.54,2.56,3,5.15,4.61,7.68a1.57,1.57,0,0,0,1.25.61,38.41,38.41,0,0,0,6.62-1.43c2.1-.77,4-2.14,6-3.14a10.73,10.73,0,0,1,2.84-.86,31.69,31.69,0,0,0,10.22-3.58,42.13,42.13,0,0,1,6.08-2.49,4.27,4.27,0,0,1,1.25-.08l.19.41c-.95.63-1.91,1.24-2.85,1.89-.69.46-1.32,1-2,1.44a12.6,12.6,0,0,1-2.8,1.54,19.07,19.07,0,0,0-8,4.31,6.3,6.3,0,0,1-2,1,22.47,22.47,0,0,0-10.46,8.24c-1.53,2.23-1.51,2.31-3.63.62-3.83-3.06-7.63-6.14-11.4-9.28-1.59-1.32-3-2.83-4.59-4.2a3.72,3.72,0,0,0-1.23-.48,3.68,3.68,0,0,0-.07,1.35c1.5,4,2.85,8.06,5.26,11.63a26.76,26.76,0,0,0,2.58,3.24,9.82,9.82,0,0,1,3,7.57c-.2,2.58.89,4.72,1.61,7,.38,1.2.58,2.45.86,3.68a2.09,2.09,0,0,0,0,.36c1.44,3.68,1.45,7.74,2.92,11.41.73,1.83,1.82,3.52,2.68,5.31a9.75,9.75,0,0,1,.77,2.42,8.6,8.6,0,0,1,0,2,5.3,5.3,0,0,0,.86,3.65,2.94,2.94,0,0,1,.32.86l-.28.3c-.46-.39-1.12-.68-1.36-1.18-.79-1.6-1.42-3.28-2.12-4.93-.93-2.18-1.88-4.36-2.8-6.54-.2-.48-.26-1-.43-1.49a41,41,0,0,0-1.88-5.4c-2-4-3.46-8.28-5.09-12.47a30.2,30.2,0,0,0-2.9-5c-1.13-1.79-2.37-3.51-3.45-5.32a31.33,31.33,0,0,1-1.39-3.13c-.76-1.7-1.45-3.43-2.34-5.06-.57-1.05-1.62-1.85-2.16-2.92-1.53-3-3-6.14-4.31-9.29-.89-2.15-2.59-3.42-4.29-4.78-2.1-1.68-4.17-3.28-4.11-6.48,0-1.82-.63-3.65-1.06-5.9-1.4,1.57-2.73,2.91-3.85,4.39a2.57,2.57,0,0,1-2.24,1.32c-.43,0-1.11-.13-1.23-.4a1.85,1.85,0,0,1,.13-1.47c.51-.9,1.19-1.71,1.79-2.57a.62.62,0,0,0,.13-.44c-.3-1.46.67-2.36,1.39-3.42,1.4-2,2.77-4.12,4-6.26a17.24,17.24,0,0,1,4.19-4.49c2.37-2,4.89-3.72,6.64-6.39.72-1.08,2.16-1.67,3.22-2.55s2-1.94,3.14-2.8,2.32-1.52,3.45-2.32c.41-.29,1.1-.8,1-1.07-.6-2.72,1.15-4.66,2.28-6.69a15.2,15.2,0,0,0,1.82-8.16,30.15,30.15,0,0,1,.69-6c.59-3.25,1.32-6.48,2-9.72a2,2,0,0,0,.1-.71c-.67-3.53,1-6.57,2.09-9.69a24.57,24.57,0,0,0,1.31-8.83c0-2.67.18-5.34.21-8,.05-4,.11-7.92,0-11.87a21.52,21.52,0,0,0-.8-4.69,25.29,25.29,0,0,1,.33-14.27A4.8,4.8,0,0,0,272.27,7c0-2-.06-4.08-.07-6.12A5.33,5.33,0,0,1,272.41,0Z"/><path class="cls-1" d="M381.76,67.79c-.82,3.87-1.55,7.76-2.51,11.6a25.41,25.41,0,0,1-2,4.31c-.95,2-2,4-2.84,6a23.09,23.09,0,0,1-3.82,6.68,1.46,1.46,0,0,0-.16.19c-.56.68-2.05.64-1.75,2a7.3,7.3,0,0,0,1.14,2.6c1.5,2.16,1.83,4.57,2.09,7.11a60.52,60.52,0,0,0,1.65,7.33,31.16,31.16,0,0,0,.79,3.37c.39,1.12,1.17,2.12,1.48,3.25.54,2,.8,4,1.25,6a7.86,7.86,0,0,0,.87,2.66c1.27,1.89,1,4,1.37,6.08l-.33.2a17.29,17.29,0,0,1-1.41-1.93c-.8-1.46-1.52-3-2.26-4.45-.87-1.74-1.71-3.5-2.6-5.23-.44-.84-1-1.62-1.46-2.45-.3-.55-.53-1.15-.78-1.73-.6-1.35-1.19-2.71-1.78-4.06-.42-1-.79-1.91-1.25-2.83-1.35-2.67-2.55-5.43-4.15-7.94-1.23-1.93-2.62-3.89-5-4.76-1.89-.69-3.74-1.5-5.61-2.26-.83-.34-1.68-.63-2.47-1-.43-.21-1-.61-1.05-.94s.52-.82.89-1.13c1.8-1.5,4-1.7,6.2-1.87a5.22,5.22,0,0,0,1.58-.61c.14-.06.24-.27.37-.29,2.16-.34,3.45-2,5-3.28a7.16,7.16,0,0,0,2.75-5,10.56,10.56,0,0,1,1.68-3.75c1.7-3,3.52-5.87,5.22-8.84a21.68,21.68,0,0,0,1.35-3.22c.61-1.64,1.2-3.28,1.74-4.94.6-1.85,1.13-3.73,1.7-5.59.19-.62.43-1.23.65-1.84.64-1.75,1.2-3.52,1.94-5.22,1-2.22,2.08-4.38,3.11-6.57.22-.46.36-.94.59-1.56.29.37.78.71.82,1.08.27,3,.86,6,.56,8.94a36.88,36.88,0,0,0,.86,11.74,14.83,14.83,0,0,0,5.26,8.26A21.47,21.47,0,0,1,398,82.71a11.45,11.45,0,0,0,7.53,6.7,10.08,10.08,0,0,1,4.19,2.67,18,18,0,0,0,8.41,5.25,3.46,3.46,0,0,1,1.39.67c2.88,2.55,6.2,2.68,9.8,2.14s7.08-.67,10.62-1c.13,0,.27.09.61.21a3.59,3.59,0,0,1-.69.26c-3.64.36-6.88,2-10.22,3.28s-6.73,2.7-10,4.19c-3.67,1.67-5.1,4.81-5.33,8.67-.2,3.25-.24,6.55-1.82,9.55a4.49,4.49,0,0,0-.38,1.26,29.37,29.37,0,0,0,.17,12.1c.18.74.27,1.5.38,2.25a2.33,2.33,0,0,1-2.21,2.77,6.76,6.76,0,0,0-3.85,1.72c-1.18.91-2.54,1.6-3.81,2.39a5.32,5.32,0,0,0-1.29.84c-1.24,1.46-2.4,3-3.6,4.47a11.53,11.53,0,0,0-.84,1,15.9,15.9,0,0,0-1.57,2.74c-.83,2.27-1.55,4.59-2.26,6.91-.26.87-.36,1.79-.54,2.69a5,5,0,0,1-2.61,3.67c-1.86,1-2.59,2.86-3.45,4.61-.4.81-.58,1.74-1,2.53-1,1.75-2.1,3.46-3.15,5.18l-.29-.09c.49-1.51,1-3,1.45-4.53.63-2.33,1.24-4.68,1.72-7a28.87,28.87,0,0,1,3.17-9.08c1.18-2,2.4-4,3.69-5.89a4.37,4.37,0,0,0,.94-3.44,8.83,8.83,0,0,1,.27-2.57c.29-2.32,2-4.38,1.25-6.9-.06-.2.26-.66.5-.76q2.24-.94,4.51-1.74c1.65-.58,3.31-1.1,5-1.61,1-.31,1.74-.67,1.63-2a20.32,20.32,0,0,1,.45-3.68c.35-3.47.69-6.95,1-10.44.08-.91,0-1.83,0-2.75,0-1.33.26-2.66.22-4-.07-2.25.12-4.56-1.14-6.62a1.91,1.91,0,0,0-2.1-1c-3.25.41-6.52.75-9.77,1.16a7.1,7.1,0,0,1-6.79-2.68,16.42,16.42,0,0,0-3.12-2.54,2.75,2.75,0,0,0-1.28-.19l-4.1-.17c.28-.55.34-.88.54-1,.83-.68,1.69-1.34,2.57-2s1.55-.2,2.39,0c1.41.36,2.89.43,4.32.76a8.3,8.3,0,0,1,2.75,1.07,9.25,9.25,0,0,0,6.75,1.32c2.55-.38,5.05-1.07,7.71-1.65a33.53,33.53,0,0,0-8.31-10.08c-2.78-2.45-5.66-4.74-7.73-7.93a62.74,62.74,0,0,0-5.52-7.07,9.22,9.22,0,0,1-2.14-5.8,22.36,22.36,0,0,0-1-3.89Z"/></g></g></svg>